# xmcd CD database file
#
# Track frame offsets:
#	150
#	35069
#	68304
#	126385
#	170336
#	185012
#	230351
#	272970
#
# Disc length: 3948 seconds
#
# Revision: 0
# Processed by: cddbd v1.5.1PL0 Copyright (c) Steve Scherf et al.
# Submitted via: CDex 1.51
#
DISCID=6f0f6a08
DTITLE=David Chevan and Warren Byrd - This is the Afro-Semitic Experience 
DYEAR=2002
DGENRE=Jazz
TTITLE0=Eliyahu HaNavi
TTITLE1=Tashlikh
TTITLE2=Sha Shtil
TTITLE3=Better Get Hit in Your Soul
TTITLE4=Nefesh
TTITLE5=Aalafiya/Shir LaShalom
TTITLE6=Water From an Ancient Well
TTITLE7=Waters of Babylon
EXTD=YEAR: 2002
EXTT0=
EXTT1=
EXTT2=
EXTT3=
EXTT4=
EXTT5=
EXTT6=
EXTT7=
PLAYORDER=
